<svg width="325" height="179" viewBox="0 0 325 179" fill="none" xmlns="http://www.w3.org/2000/svg">
<path d="M26.7964 176.856V24.224C25.9389 25.5102 24.224 26.7964 21.6515 28.0826C19.079 29.3689 16.2208 30.5122 13.0766 31.5126C10.0754 32.513 7.28862 33.4419 4.71617 34.2994C2.28663 35.014 0.714571 35.4427 0 35.5856V22.9377C2.0008 22.3661 4.35888 21.5086 7.07425 20.3653C9.78962 19.222 12.505 17.8643 15.2204 16.2922C17.9357 14.5772 20.5796 12.6479 23.1521 10.5042C25.8675 8.36049 28.1541 5.93094 30.012 3.21557H42.6599V176.856H26.7964Z" fill="black" fill-opacity="0.05"/>
<path d="M120.617 179C110.328 179 102.181 176.785 96.179 172.354C90.1766 167.924 85.8892 161.85 83.3167 154.133C80.7443 146.416 79.458 137.626 79.458 127.765V52.3066C79.458 42.3026 80.7443 33.5134 83.3167 25.9389C86.0321 18.2216 90.391 12.2192 96.3934 7.93174C102.539 3.64432 110.613 1.5006 120.617 1.5006C130.907 1.5006 139.053 3.64432 145.056 7.93174C151.201 12.2192 155.56 18.2216 158.132 25.9389C160.848 33.5134 162.205 42.3026 162.205 52.3066V127.765C162.205 137.769 160.848 146.63 158.132 154.347C155.56 162.065 151.272 168.139 145.27 172.569C139.268 176.856 131.05 179 120.617 179ZM120.617 166.566C127.334 166.566 132.479 164.852 136.052 161.422C139.768 157.992 142.34 153.49 143.769 147.916C145.341 142.2 146.128 135.911 146.128 129.051V51.2347C146.128 44.2319 145.341 37.9437 143.769 32.3701C142.34 26.6535 139.839 22.1517 136.266 18.8647C132.694 15.5776 127.477 13.9341 120.617 13.9341C114.043 13.9341 108.898 15.5776 105.183 18.8647C101.61 22.1517 99.0373 26.6535 97.4652 32.3701C96.0361 37.9437 95.3215 44.2319 95.3215 51.2347V129.051C95.3215 135.911 96.0361 142.2 97.4652 147.916C99.0373 153.49 101.681 157.992 105.397 161.422C109.113 164.852 114.186 166.566 120.617 166.566Z" fill="black" fill-opacity="0.05"/>
<path d="M220.215 176.856L275.308 1.71497H289.028L234.363 176.856H220.215ZM210.997 90.4647C201.421 90.4647 194.633 87.392 190.631 81.2467C186.63 74.9585 184.629 66.8838 184.629 57.0228V32.7988C184.629 22.6519 186.63 14.6487 190.631 8.78922C194.633 2.92974 201.421 0 210.997 0C220.572 0 227.289 2.92974 231.147 8.78922C235.149 14.5058 237.15 22.3661 237.15 32.3701V57.2371C237.15 67.2411 235.149 75.3158 231.147 81.4611C227.289 87.4635 220.572 90.4647 210.997 90.4647ZM210.997 78.2455C214.141 78.2455 216.57 77.388 218.285 75.673C220 73.8152 221.215 71.3142 221.93 68.1701C222.644 65.0259 223.001 61.5245 223.001 57.6659V32.1557C223.001 26.2962 222.144 21.5086 220.429 17.7928C218.857 14.0771 215.713 12.2192 210.997 12.2192C206.138 12.2192 202.922 14.1485 201.35 18.0072C199.778 21.723 198.992 26.5106 198.992 32.3701V57.6659C198.992 61.6675 199.349 65.2403 200.064 68.3844C200.778 71.3856 201.993 73.8152 203.708 75.673C205.423 77.388 207.852 78.2455 210.997 78.2455ZM298.031 178.143C288.456 178.143 281.668 175.07 277.666 168.925C273.807 162.779 271.878 154.705 271.878 144.701V120.691C271.878 110.544 273.807 102.541 277.666 96.6814C281.668 90.822 288.456 87.8922 298.031 87.8922C307.749 87.8922 314.538 90.7505 318.397 96.4671C322.398 102.184 324.399 110.115 324.399 120.262V145.129C324.399 155.133 322.398 163.137 318.397 169.139C314.538 175.141 307.749 178.143 298.031 178.143ZM298.031 166.138C301.318 166.138 303.819 165.209 305.534 163.351C307.249 161.493 308.393 159.063 308.964 156.062C309.679 152.918 310.036 149.345 310.036 145.344V120.048C310.036 114.188 309.25 109.401 307.678 105.685C306.106 101.826 302.89 99.897 298.031 99.897C293.172 99.897 289.957 101.826 288.385 105.685C286.813 109.401 286.027 114.188 286.027 120.048V145.344C286.027 149.345 286.384 152.918 287.098 156.062C287.813 159.063 289.028 161.493 290.743 163.351C292.458 165.209 294.887 166.138 298.031 166.138Z" fill="black" fill-opacity="0.05"/>
</svg>
