<svg width="353" height="179" viewBox="0 0 353 179" fill="none" xmlns="http://www.w3.org/2000/svg">
<path d="M0 176.856V165.28L46.7819 93.6802C50.2154 88.3924 53.4343 83.319 56.4387 78.4599C59.443 73.4579 61.8751 68.2415 63.735 62.8108C65.7378 57.38 66.7393 51.2347 66.7393 44.3749C66.7393 35.0854 64.8079 27.7968 60.9452 22.509C57.2255 17.2212 51.4315 14.5772 43.5629 14.5772C36.5528 14.5772 31.1164 16.1493 27.2537 19.2934C23.3909 22.4375 20.6727 26.7964 19.099 32.3701C17.6684 37.8008 16.9531 43.9461 16.9531 50.806V54.6647H1.28757V50.3772C1.28757 39.6587 2.71821 30.7265 5.57949 23.5808C8.44077 16.2922 12.8757 10.79 18.8844 7.07425C25.0362 3.35849 33.0478 1.5006 42.9192 1.5006C56.081 1.5006 65.9524 5.43075 72.5334 13.291C79.1143 21.0084 82.4048 31.7984 82.4048 45.6611C82.4048 52.6639 81.4033 59.095 79.4004 64.9545C77.3975 70.814 74.8224 76.4591 71.675 81.8898C68.5276 87.1776 65.2371 92.5369 61.8036 97.9677L18.4552 163.565H78.7567V176.856H0Z" fill="white" fill-opacity="0.1"/>
<path d="M149.005 179C138.704 179 130.55 176.785 124.541 172.354C118.532 167.924 114.24 161.85 111.665 154.133C109.09 146.416 107.803 137.626 107.803 127.765V52.3066C107.803 42.3026 109.09 33.5134 111.665 25.9389C114.383 18.2216 118.747 12.2192 124.756 7.93174C130.907 3.64432 138.99 1.5006 149.005 1.5006C159.306 1.5006 167.46 3.64432 173.469 7.93174C179.621 12.2192 183.984 18.2216 186.559 25.9389C189.277 33.5134 190.636 42.3026 190.636 52.3066V127.765C190.636 137.769 189.277 146.63 186.559 154.347C183.984 162.065 179.692 168.139 173.683 172.569C167.675 176.856 159.449 179 149.005 179ZM149.005 166.566C155.729 166.566 160.879 164.852 164.456 161.422C168.175 157.992 170.751 153.49 172.181 147.916C173.755 142.2 174.542 135.911 174.542 129.051V51.2347C174.542 44.2319 173.755 37.9437 172.181 32.3701C170.751 26.6535 168.247 22.1517 164.67 18.8647C161.094 15.5776 155.872 13.9341 149.005 13.9341C142.424 13.9341 137.274 15.5776 133.554 18.8647C129.977 22.1517 127.402 26.6535 125.829 32.3701C124.398 37.9437 123.683 44.2319 123.683 51.2347V129.051C123.683 135.911 124.398 142.2 125.829 147.916C127.402 153.49 130.049 157.992 133.769 161.422C137.488 164.852 142.567 166.566 149.005 166.566Z" fill="white" fill-opacity="0.1"/>
<path d="M248.706 176.856L303.858 1.71497H317.592L262.87 176.856H248.706ZM239.479 90.4647C229.894 90.4647 223.098 87.392 219.092 81.2467C215.086 74.9585 213.084 66.8838 213.084 57.0228V32.7988C213.084 22.6519 215.086 14.6487 219.092 8.78922C223.098 2.92974 229.894 0 239.479 0C249.064 0 255.788 2.92974 259.651 8.78922C263.657 14.5058 265.66 22.3661 265.66 32.3701V57.2371C265.66 67.2411 263.657 75.3158 259.651 81.4611C255.788 87.4635 249.064 90.4647 239.479 90.4647ZM239.479 78.2455C242.626 78.2455 245.058 77.388 246.775 75.673C248.492 73.8152 249.708 71.3142 250.423 68.1701C251.139 65.0259 251.496 61.5245 251.496 57.6659V32.1557C251.496 26.2962 250.638 21.5086 248.921 17.7928C247.347 14.0771 244.2 12.2192 239.479 12.2192C234.615 12.2192 231.396 14.1485 229.822 18.0072C228.248 21.723 227.461 26.5106 227.461 32.3701V57.6659C227.461 61.6675 227.819 65.2403 228.534 68.3844C229.25 71.3856 230.466 73.8152 232.183 75.673C233.899 77.388 236.331 78.2455 239.479 78.2455ZM326.605 178.143C317.019 178.143 310.224 175.07 306.218 168.925C302.355 162.779 300.424 154.705 300.424 144.701V120.691C300.424 110.544 302.355 102.541 306.218 96.6814C310.224 90.822 317.019 87.8922 326.605 87.8922C336.333 87.8922 343.129 90.7505 346.991 96.4671C350.997 102.184 353 110.115 353 120.262V145.129C353 155.133 350.997 163.137 346.991 169.139C343.129 175.141 336.333 178.143 326.605 178.143ZM326.605 166.138C329.895 166.138 332.399 165.209 334.116 163.351C335.832 161.493 336.977 159.063 337.549 156.062C338.264 152.918 338.622 149.345 338.622 145.344V120.048C338.622 114.188 337.835 109.401 336.262 105.685C334.688 101.826 331.469 99.897 326.605 99.897C321.741 99.897 318.522 101.826 316.948 105.685C315.374 109.401 314.587 114.188 314.587 120.048V145.344C314.587 149.345 314.945 152.918 315.66 156.062C316.376 159.063 317.592 161.493 319.308 163.351C321.025 165.209 323.457 166.138 326.605 166.138Z" fill="white" fill-opacity="0.1"/>
</svg>
