<svg width="345" height="179" viewBox="0 0 345 179" fill="none" xmlns="http://www.w3.org/2000/svg">
<path d="M0 177.068V165.478L46.789 93.7926C50.223 88.4984 53.4424 83.4189 56.4472 78.554C59.452 73.546 61.8845 68.3233 63.7446 62.8861C65.7478 57.4488 66.7494 51.2962 66.7494 44.4281C66.7494 35.1275 64.8177 27.8301 60.9544 22.536C57.2342 17.2418 51.4393 14.5947 43.5695 14.5947C36.5584 14.5947 31.1211 16.1687 27.2578 19.3166C23.3945 22.4644 20.6759 26.8285 19.1019 32.4089C17.6711 37.8461 16.9556 43.9988 16.9556 50.8669V54.7302H1.28777V50.4376C1.28777 39.7062 2.71863 30.7634 5.58034 23.6091C8.44205 16.3118 12.8777 10.803 18.8873 7.08273C25.04 3.36251 33.0528 1.5024 42.9257 1.5024C56.0895 1.5024 65.9624 5.43726 72.5444 13.307C79.1263 21.0336 82.4173 31.8365 82.4173 45.7158C82.4173 52.727 81.4157 59.1659 79.4125 65.0324C77.4093 70.8989 74.8337 76.5508 71.6859 81.988C68.538 87.2822 65.247 92.6479 61.813 98.0851L18.458 163.761H78.7686V177.068H0Z" fill="white" fill-opacity="0.1"/>
<path d="M145.379 179C136.078 179 128.566 177.211 122.843 173.634C117.263 170.057 113.185 164.763 110.609 157.752C108.033 150.741 106.746 142.227 106.746 132.211H122.414C122.414 139.222 123.129 145.303 124.56 150.454C125.991 155.605 128.423 159.54 131.857 162.259C135.291 164.978 140.013 166.337 146.023 166.337C152.605 166.337 157.613 164.691 161.047 161.4C164.481 157.966 166.842 152.958 168.129 146.376C169.417 139.795 170.061 131.71 170.061 122.124C170.061 111.535 169.274 103.093 167.7 96.7974C166.269 90.5016 163.765 85.9944 160.188 83.2758C156.754 80.4141 152.104 78.9832 146.237 78.9832C141.802 78.9832 137.652 80.1994 133.789 82.6319C129.926 85.0643 126.563 88.6415 123.701 93.3633H110.609V3.21942H178.217V18.0288H124.345L123.701 78.3393C126.277 75.0484 129.711 72.3297 134.004 70.1834C138.439 67.8941 143.876 66.7494 150.315 66.7494C158.9 66.7494 165.768 68.8957 170.92 73.1882C176.214 77.3377 180.006 83.4189 182.295 91.4316C184.584 99.4444 185.729 109.031 185.729 120.192C185.729 129.492 185.014 137.791 183.583 145.089C182.152 152.386 179.791 158.61 176.5 163.761C173.352 168.769 169.203 172.561 164.051 175.137C159.043 177.712 152.819 179 145.379 179Z" fill="white" fill-opacity="0.1"/>
<path d="M240.151 177.068L295.31 1.71703H309.046L254.316 177.068H240.151ZM230.922 90.5731C221.335 90.5731 214.538 87.4968 210.532 81.3441C206.526 75.0484 204.522 66.964 204.522 57.0911V32.8381C204.522 22.6791 206.526 14.6663 210.532 8.79976C214.538 2.93325 221.335 0 230.922 0C240.508 0 247.233 2.93325 251.097 8.79976C255.103 14.5232 257.106 22.3929 257.106 32.4089V57.3058C257.106 67.3217 255.103 75.4061 251.097 81.5587C247.233 87.5683 240.508 90.5731 230.922 90.5731ZM230.922 78.3393C234.069 78.3393 236.502 77.4808 238.219 75.7638C239.936 73.9037 241.152 71.3997 241.868 68.2518C242.583 65.1039 242.941 61.5983 242.941 57.735V32.1942C242.941 26.3277 242.082 21.5344 240.365 17.8141C238.791 14.0939 235.643 12.2338 230.922 12.2338C226.057 12.2338 222.837 14.1655 221.263 18.0288C219.689 21.749 218.902 26.5424 218.902 32.4089V57.735C218.902 61.7414 219.26 65.3185 219.976 68.4664C220.691 71.4712 221.907 73.9037 223.624 75.7638C225.341 77.4808 227.774 78.3393 230.922 78.3393ZM318.061 178.356C308.474 178.356 301.677 175.28 297.671 169.127C293.808 162.974 291.876 154.89 291.876 144.874V120.836C291.876 110.677 293.808 102.664 297.671 96.7974C301.677 90.9308 308.474 87.9976 318.061 87.9976C327.79 87.9976 334.587 90.8593 338.45 96.5827C342.457 102.306 344.46 110.247 344.46 120.406V145.303C344.46 155.319 342.457 163.332 338.45 169.342C334.587 175.351 327.79 178.356 318.061 178.356ZM318.061 166.337C321.352 166.337 323.856 165.407 325.573 163.547C327.29 161.687 328.434 159.254 329.007 156.249C329.722 153.102 330.08 149.524 330.08 145.518V120.192C330.08 114.325 329.293 109.532 327.719 105.812C326.145 101.948 322.926 100.017 318.061 100.017C313.196 100.017 309.976 101.948 308.402 105.812C306.828 109.532 306.042 114.325 306.042 120.192V145.518C306.042 149.524 306.399 153.102 307.115 156.249C307.83 159.254 309.046 161.687 310.763 163.547C312.48 165.407 314.913 166.337 318.061 166.337Z" fill="white" fill-opacity="0.1"/>
</svg>
