<svg width="205" height="49" viewBox="0 0 205 49" fill="none" xmlns="http://www.w3.org/2000/svg">
<path d="M0.78 49V0.399996H11.34C14.94 0.399996 17.78 0.959996 19.86 2.08C21.98 3.16 23.48 4.8 24.36 7C25.28 9.2 25.74 11.94 25.74 15.22V33.1C25.74 36.54 25.28 39.44 24.36 41.8C23.48 44.16 22.02 45.96 19.98 47.2C17.98 48.4 15.28 49 11.88 49H0.78ZM7.56 44.14H11.4C13.88 44.14 15.64 43.66 16.68 42.7C17.72 41.74 18.34 40.34 18.54 38.5C18.78 36.66 18.9 34.44 18.9 31.84V16.06C18.9 13.54 18.74 11.5 18.42 9.94C18.1 8.38 17.4 7.24 16.32 6.52C15.24 5.8 13.54 5.44 11.22 5.44H7.56V44.14ZM32.4206 49V0.399996H51.2606V5.44H39.2006V21.52H48.9806V26.32H39.2006V44.14H51.3806V49H32.4206ZM56.8542 49V0.399996H63.6342V44.14H76.0542V49H56.8542ZM81.0619 49V0.399996H87.7219V49H81.0619ZM104.045 49L93.1847 0.399996H99.5447L107.225 36.22L114.545 0.399996H120.725L109.985 49H104.045ZM125.878 49V0.399996H144.718V5.44H132.658V21.52H142.438V26.32H132.658V44.14H144.838V49H125.878ZM150.311 49V0.399996H160.091C163.331 0.399996 166.011 0.839997 168.131 1.72C170.251 2.56 171.811 3.94 172.811 5.86C173.851 7.74 174.371 10.22 174.371 13.3C174.371 15.18 174.171 16.9 173.771 18.46C173.371 19.98 172.731 21.28 171.851 22.36C170.971 23.4 169.811 24.16 168.371 24.64L175.271 49H168.731L162.371 26.2H157.091V49H150.311ZM157.091 21.34H159.671C161.591 21.34 163.151 21.1 164.351 20.62C165.551 20.14 166.431 19.32 166.991 18.16C167.551 17 167.831 15.38 167.831 13.3C167.831 10.46 167.311 8.42 166.271 7.18C165.231 5.9 163.171 5.26 160.091 5.26H157.091V21.34ZM187.986 49V31.84L177.486 0.399996H183.786L191.226 23.86L198.546 0.399996H204.906L194.466 31.84V49H187.986Z" fill="white"/>
</svg>
