<svg width="21" height="21" viewBox="0 0 21 21" fill="none" xmlns="http://www.w3.org/2000/svg">
<path d="M19.0303 12.5C18.4303 12.5 18.0303 12.9 18.0303 13.5V17.5C18.0303 18.1 17.6303 18.5 17.0303 18.5H3.03027C2.43027 18.5 2.03027 18.1 2.03027 17.5V13.5C2.03027 12.9 1.63027 12.5 1.03027 12.5C0.430273 12.5 0.0302734 12.9 0.0302734 13.5V17.5C0.0302734 19.2 1.33027 20.5 3.03027 20.5H17.0303C18.7303 20.5 20.0303 19.2 20.0303 17.5V13.5C20.0303 12.9 19.6303 12.5 19.0303 12.5Z" fill="#F09A53"/>
<path d="M9.33027 14.2C9.43027 14.3 9.53027 14.4 9.63027 14.4C9.73027 14.5 9.93027 14.5 10.0303 14.5C10.1303 14.5 10.3303 14.5 10.4303 14.4C10.5303 14.3 10.6303 14.3 10.7303 14.2L15.7303 9.2C16.1303 8.8 16.1303 8.2 15.7303 7.8C15.3303 7.4 14.7303 7.4 14.3303 7.8L11.0303 11.1V1.5C11.0303 0.9 10.6303 0.5 10.0303 0.5C9.43027 0.5 9.03027 0.9 9.03027 1.5V11.1L5.73027 7.8C5.33027 7.4 4.73027 7.4 4.33027 7.8C3.93027 8.2 3.93027 8.8 4.33027 9.2L9.33027 14.2Z" fill="#F09A53"/>
</svg>
