<svg width="34" height="34" viewBox="0 0 34 34" fill="none" xmlns="http://www.w3.org/2000/svg">
<path d="M29.2599 9.36364H28.2095V6.09091C28.2095 5.43636 27.7894 5 27.1592 5H6.15119C4.47056 5 3 6.52727 3 8.27273V25.7273C3 27.4727 4.47056 29 6.15119 29H29.2599C29.8902 29 30.3103 28.5636 30.3103 27.9091V10.4545C30.3103 9.8 29.8902 9.36364 29.2599 9.36364ZM28.2095 20.2727H21.9072V18.0909H28.2095V20.2727ZM6.15119 7.18182H26.1088V9.36364H6.15119C5.52095 9.36364 5.1008 8.92727 5.1008 8.27273C5.1008 7.61818 5.52095 7.18182 6.15119 7.18182ZM6.15119 26.8182C5.52095 26.8182 5.1008 26.3818 5.1008 25.7273V11.3273C5.52095 11.5455 5.73103 11.5455 6.15119 11.5455H28.2095V15.9091H20.8568C20.2265 15.9091 19.8064 16.3455 19.8064 17V21.3636C19.8064 22.0182 20.2265 22.4545 20.8568 22.4545H28.2095V26.8182H6.15119Z" fill="white"/>
</svg>
