<svg width="34" height="34" viewBox="0 0 34 34" fill="none" xmlns="http://www.w3.org/2000/svg">
<path d="M32.407 16.6839L29.0469 14.975V9.84821C29.0469 9.27857 28.6516 8.89881 28.0586 8.89881H23.1172V7.9494C23.1172 7.37976 22.7219 7 22.1289 7H4.33984C3.74688 7 3.35156 7.37976 3.35156 7.9494V10.7976H2.36328C1.77031 10.7976 1.375 11.1774 1.375 11.747C1.375 12.3167 1.77031 12.6964 2.36328 12.6964H14.2227C14.8156 12.6964 15.2109 12.3167 15.2109 11.747C15.2109 11.1774 14.8156 10.7976 14.2227 10.7976H5.32812V8.89881H21.1406V22.1905H15.0133C14.618 20.4815 13.0367 19.3423 11.2578 19.3423C9.47891 19.3423 7.89766 20.4815 7.50234 22.1905H5.32812V20.2917H6.31641C6.90938 20.2917 7.30469 19.9119 7.30469 19.3423C7.30469 18.7726 6.90938 18.3929 6.31641 18.3929H2.36328C1.77031 18.3929 1.375 18.7726 1.375 19.3423C1.375 19.9119 1.77031 20.2917 2.36328 20.2917H3.35156V23.1399C3.35156 23.7095 3.74688 24.0893 4.33984 24.0893H7.50234C7.89766 25.7982 9.47891 26.9375 11.2578 26.9375C13.0367 26.9375 14.618 25.7982 15.0133 24.0893H21.1406C21.5359 25.7982 23.1172 26.9375 24.8961 26.9375C26.675 26.9375 28.2563 25.7982 28.6516 24.0893H31.8141C32.6047 24.0893 33 23.7095 33 23.1399V17.4435C33 17.0637 32.8023 16.6839 32.407 16.6839ZM11.2578 25.0387C10.0719 25.0387 9.28125 24.2792 9.28125 23.1399C9.28125 22.0006 10.0719 21.2411 11.2578 21.2411C12.4438 21.2411 13.2344 22.0006 13.2344 23.1399C13.2344 24.2792 12.4438 25.0387 11.2578 25.0387ZM25.0938 25.0387C23.9078 25.0387 23.1172 24.2792 23.1172 23.1399C23.1172 22.0006 23.9078 21.2411 25.0938 21.2411C26.2797 21.2411 27.0703 22.0006 27.0703 23.1399C27.0703 24.2792 26.2797 25.0387 25.0938 25.0387ZM31.0234 22.1905H28.8492C28.4539 20.4815 26.8727 19.3423 25.0938 19.3423C24.3031 19.3423 23.7102 19.5321 23.1172 19.9119V10.7976H27.0703V15.5446C27.0703 15.9244 27.268 16.3042 27.6633 16.3042L31.0234 18.0131V22.1905Z" fill="white"/>
<path d="M1.1 16.625H9.9C10.56 16.625 11 16.2125 11 15.5938C11 14.975 10.56 14.5625 9.9 14.5625H1.1C0.44 14.5625 0 14.975 0 15.5938C0 16.2125 0.44 16.625 1.1 16.625Z" fill="white"/>
</svg>
